<svg width="65" height="65" viewBox="0 0 65 65" fill="none" xmlns="http://www.w3.org/2000/svg">
<path d="M32.5 65C50.4493 65 65 50.4493 65 32.5C65 14.5507 50.4493 0 32.5 0C14.5507 0 0 14.5507 0 32.5C0 50.4493 14.5507 65 32.5 65Z" fill="url(#paint0_linear_365_66)"/>
<path d="M13.526 32.2179L35.4118 23.2006C37.5722 22.2613 44.8988 19.2555 44.8988 19.2555C44.8988 19.2555 48.2803 17.9405 47.9985 21.1341C47.9046 22.4492 47.1532 27.0518 46.4017 32.0301L44.0534 46.7772C44.0534 46.7772 43.8656 48.9376 42.2688 49.3133C40.6719 49.689 38.0419 47.9983 37.5722 47.6226C37.1965 47.3408 30.5274 43.1139 28.0852 41.0474C27.4277 40.4838 26.6763 39.3567 28.1792 38.0416C31.5607 34.9419 35.5997 31.0908 38.0419 28.6486C39.169 27.5214 40.2962 24.8913 35.5997 28.085L22.3555 37.0084C22.3555 37.0084 20.8526 37.9477 18.0347 37.1023C15.2167 36.257 11.9292 35.1298 11.9292 35.1298C11.9292 35.1298 9.67483 33.7208 13.526 32.2179Z" fill="white"/>
<defs>
<linearGradient id="paint0_linear_365_66" x1="43.3358" y1="10.8358" x2="27.0858" y2="48.75" gradientUnits="userSpaceOnUse">
<stop stop-color="#37AEE2"/>
<stop offset="1" stop-color="#1E96C8"/>
</linearGradient>
</defs>
</svg>
